<svg width="84" height="84" viewBox="0 0 84 84" fill="none" xmlns="http://www.w3.org/2000/svg">
<g filter="url(#filter0_d_1658_20210)">
<circle cx="42" cy="40" r="28" fill="white"/>
</g>
<path fill-rule="evenodd" clip-rule="evenodd" d="M52.6884 28L53.8821 49.4874C53.9557 50.8121 52.9415 51.9457 51.6168 52.0193C51.5502 52.0223 51.5502 52.0223 51.4837 52.023H51.4837H51.4835H32.4023C31.0755 52.023 30 50.9474 30 49.6207C30.0006 49.554 30.0006 49.554 30.0037 49.4874L31.1974 28H52.6884ZM33.47 30.4024L32.4023 49.6207H51.4835L50.4158 30.4024H33.47ZM38.3395 32.8048H35.9372V35.8076C35.9372 38.6912 38.7277 41.2128 41.9429 41.2128C45.1581 41.2128 47.9487 38.6912 47.9487 35.8076V32.8048H45.5464V35.8076C45.5464 37.3071 43.8826 38.8105 41.9429 38.8105C40.0032 38.8105 38.3395 37.3071 38.3395 35.8076V32.8048Z" fill="black"/>
<circle cx="53" cy="30" r="6" fill="#010101"/>
<path d="M51.32 33V32.152H52.944V28.248H51.48V27.4H53.904V32.152H55.368V33H51.32Z" fill="white"/>
<defs>
<filter id="filter0_d_1658_20210" x="0" y="0" width="84" height="84" filterUnits="userSpaceOnUse" color-interpolation-filters="sRGB">
<feFlood flood-opacity="0" result="BackgroundImageFix"/>
<feColorMatrix in="SourceAlpha" type="matrix" values="0 0 0 0 0 0 0 0 0 0 0 0 0 0 0 0 0 0 127 0" result="hardAlpha"/>
<feOffset dy="2"/>
<feGaussianBlur stdDeviation="7"/>
<feComposite in2="hardAlpha" operator="out"/>
<feColorMatrix type="matrix" values="0 0 0 0 0 0 0 0 0 0 0 0 0 0 0 0 0 0 0.08 0"/>
<feBlend mode="normal" in2="BackgroundImageFix" result="effect1_dropShadow_1658_20210"/>
<feBlend mode="normal" in="SourceGraphic" in2="effect1_dropShadow_1658_20210" result="shape"/>
</filter>
</defs>
</svg>
