<svg width="56" height="56" viewBox="0 0 56 56" fill="none" xmlns="http://www.w3.org/2000/svg">
<path d="M55.6046 39.3951L47.578 47.5308L39.4617 55.5769L28.0332 55.654L16.6046 55.6044L8.469 47.5777L0.422837 39.4614L0.345784 28.033L0.395386 16.6044L8.42203 8.46876L16.5383 0.422597L27.9668 0.345543L39.3954 0.395144L47.531 8.42179L55.5772 16.5381L55.6542 27.9665L55.6046 39.3951Z" fill="#CD7F32"/>
<path d="M26.6836 38.1405V32.5171L27.7454 32.6917L28.8072 32.5171V38.1405H26.6836Z" fill="#010101"/>
<path d="M20.4585 18.9341C20.4585 18.9341 16.7913 17.0939 16.8047 20.6981C16.8047 20.6981 16.769 23.8814 18.8391 26.4916C18.8391 26.4916 20.454 28.7929 23.2513 29.6704C23.2513 29.6704 22.475 28.4705 22.0869 27.5572C22.0869 27.5572 19.5439 26.1065 18.6294 23.1158C18.6294 23.1158 17.0144 19.0102 20.454 20.4697V18.9341H20.4585Z" fill="#010101"/>
<path d="M27.7438 32.6919C29.5863 32.6919 31.1165 31.0219 31.1165 31.0219C33.0126 29.1011 34.0476 25.8417 34.0476 25.8417C35.3993 22.2913 34.9041 16.8022 34.9041 16.8022H27.7438H20.579C20.579 16.8022 20.0883 22.2913 21.44 25.8417C21.44 25.8417 22.4751 29.1056 24.3711 31.0219C24.3711 31.0219 25.9013 32.6919 27.7438 32.6919Z" fill="#010101"/>
<path d="M35.0506 18.9341C35.0506 18.9341 38.7177 17.0939 38.7043 20.6981C38.7043 20.6981 38.74 23.8814 36.67 26.4916C36.67 26.4916 35.055 28.7929 32.2578 29.6704C32.2578 29.6704 33.0341 28.4705 33.4222 27.5572C33.4222 27.5572 35.9651 26.1065 36.8797 23.1158C36.8797 23.1158 38.4947 19.0102 35.055 20.4697V18.9341H35.0506Z" fill="#010101"/>
<path d="M34.118 38.8315H21.3633V40.6941H34.118V38.8315Z" fill="#010101"/>
<path d="M29.9306 38.1401H25.5586V38.8296H29.9306V38.1401Z" fill="#010101"/>
</svg>
