<svg width="42" height="42" viewBox="0 0 42 42" fill="none" xmlns="http://www.w3.org/2000/svg">
<path d="M27.5 21C27.5 22.2856 27.1188 23.5423 26.4046 24.6112C25.6903 25.6801 24.6752 26.5132 23.4874 27.0052C22.2997 27.4972 20.9928 27.6259 19.7319 27.3751C18.471 27.1243 17.3128 26.5052 16.4038 25.5962C15.4948 24.6872 14.8757 23.529 14.6249 22.2681C14.3741 21.0072 14.5028 19.7003 14.9948 18.5126C15.4868 17.3248 16.3199 16.3097 17.3888 15.5954C18.4577 14.8812 19.7144 14.5 21 14.5C22.7233 14.502 24.3755 15.1874 25.594 16.406C26.8126 17.6245 27.498 19.2767 27.5 21ZM41.3125 12.0625V29.9375C41.3091 32.9533 40.1096 35.8446 37.9771 37.9771C35.8446 40.1096 32.9533 41.3091 29.9375 41.3125H12.0625C9.04671 41.3091 6.15542 40.1096 4.02293 37.9771C1.89045 35.8446 0.690915 32.9533 0.6875 29.9375V12.0625C0.690915 9.04671 1.89045 6.15542 4.02293 4.02293C6.15542 1.89045 9.04671 0.690915 12.0625 0.6875H29.9375C32.9533 0.690915 35.8446 1.89045 37.9771 4.02293C40.1096 6.15542 41.3091 9.04671 41.3125 12.0625ZM30.75 21C30.75 19.0716 30.1782 17.1866 29.1068 15.5832C28.0355 13.9798 26.5127 12.7301 24.7312 11.9922C22.9496 11.2542 20.9892 11.0611 19.0979 11.4373C17.2066 11.8135 15.4693 12.7421 14.1057 14.1057C12.7421 15.4693 11.8135 17.2066 11.4373 19.0979C11.0611 20.9892 11.2542 22.9496 11.9922 24.7312C12.7301 26.5127 13.9798 28.0355 15.5832 29.1068C17.1866 30.1782 19.0716 30.75 21 30.75C23.585 30.7471 26.0632 29.7189 27.8911 27.8911C29.7189 26.0632 30.7471 23.585 30.75 21ZM34 10.4375C34 9.95541 33.857 9.48414 33.5892 9.0833C33.3214 8.68245 32.9407 8.37003 32.4953 8.18554C32.0499 8.00105 31.5598 7.95278 31.087 8.04684C30.6141 8.14089 30.1798 8.37304 29.8389 8.71393C29.498 9.05482 29.2659 9.48914 29.1718 9.96197C29.0778 10.4348 29.1261 10.9249 29.3105 11.3703C29.495 11.8157 29.8075 12.1964 30.2083 12.4642C30.6091 12.732 31.0804 12.875 31.5625 12.875C32.209 12.875 32.829 12.6182 33.2861 12.1611C33.7432 11.704 34 11.084 34 10.4375Z" fill="white"/>
</svg>
