<svg width="51" height="42" viewBox="0 0 51 42" fill="none" xmlns="http://www.w3.org/2000/svg">
<path d="M3.50598 18.0809C17.1962 12.1538 26.3251 8.24624 30.8928 6.35832C43.9344 0.967918 46.6444 0.0315489 48.4107 0.000299757C48.7992 -0.00617097 49.6678 0.0895009 50.2304 0.543188C50.7055 0.926272 50.8363 1.44376 50.8988 1.80697C50.9614 2.17018 51.0392 2.99757 50.9773 3.64407C50.2706 11.0231 47.2126 28.9301 45.6568 37.1948C44.9985 40.6919 43.7023 41.8644 42.4475 41.9792C39.7203 42.2286 37.6495 40.1882 35.0081 38.4677C30.8749 35.7753 28.5399 34.0993 24.5279 31.4721C19.8914 28.4358 22.897 26.7671 25.5394 24.0399C26.2309 23.3261 38.2467 12.4655 38.4793 11.4803C38.5084 11.357 38.5354 10.8977 38.2608 10.6552C37.9862 10.4127 37.5809 10.4956 37.2885 10.5616C36.8739 10.6551 30.2711 14.9919 17.4799 23.572C15.6057 24.8509 13.9081 25.474 12.3871 25.4414C10.7104 25.4054 7.48495 24.4993 5.08719 23.7248C2.14623 22.7748 -0.191181 22.2725 0.0123552 20.6591C0.118369 19.8188 1.28291 18.9594 3.50598 18.0809Z" fill="white"/>
</svg>
