<svg width="47" height="52" viewBox="0 0 47 52" fill="none" xmlns="http://www.w3.org/2000/svg">
<path d="M45.0471 11.4222C39.4526 11.4222 34.9011 6.98163 34.9011 1.52344C34.9011 0.681976 34.2021 0 33.3396 0L24.9768 0C24.1147 0 23.4153 0.681976 23.4153 1.52344L23.4153 34.9748C23.4153 38.1835 20.7392 40.794 17.4503 40.794C14.1615 40.794 11.4858 38.1835 11.4858 34.9748C11.4858 31.7657 14.1615 29.1552 17.4503 29.1552C18.3128 29.1552 19.0118 28.4732 19.0118 27.6317V19.4726C19.0118 18.6316 18.3128 17.9492 17.4503 17.9492C7.82813 17.9492 0 25.587 0 34.9748C0 44.3626 7.82813 52 17.4503 52C27.0726 52 34.9011 44.3626 34.9011 34.9748V20.1677C38.0086 21.7844 41.467 22.6282 45.0471 22.6282C45.9095 22.6282 46.6085 21.9462 46.6085 21.1048V12.9456C46.6085 12.1046 45.9095 11.4222 45.0471 11.4222Z" fill="white"/>
</svg>
