<svg width="24" height="25" viewBox="0 0 24 25" fill="none" xmlns="http://www.w3.org/2000/svg">
<path d="M12 2.5C6.6984 2.5 2.4 6.9775 2.4 12.5C2.4 18.0225 6.6984 22.5 12 22.5C17.3016 22.5 21.6 18.0225 21.6 12.5C21.6 6.9775 17.3016 2.5 12 2.5ZM17.0888 15.8058L15.5944 15.8275C15.5944 15.8275 15.272 15.8933 14.8504 15.59C14.2912 15.19 13.764 14.1492 13.3528 14.2842C12.936 14.4225 12.9488 15.3592 12.9488 15.3592C12.9488 15.3592 12.952 15.5242 12.8568 15.6317C12.7536 15.7475 12.5512 15.7358 12.5512 15.7358H11.8816C11.8816 15.7358 10.4048 15.8633 9.1032 14.45C7.6856 12.9092 6.4328 9.86833 6.4328 9.86833C6.4328 9.86833 6.3592 9.67667 6.4376 9.57833C6.5264 9.47 6.7656 9.46667 6.7656 9.46667L8.3656 9.45833C8.3656 9.45833 8.516 9.48583 8.6248 9.56917C8.7136 9.6375 8.764 9.76583 8.764 9.76583C8.764 9.76583 9.0224 10.4483 9.3656 11.0667C10.0344 12.2717 10.3448 12.5358 10.572 12.4067C10.9032 12.2183 10.804 10.7033 10.804 10.7033C10.804 10.7033 10.8104 10.1533 10.6376 9.90833C10.5032 9.7175 10.2504 9.66083 10.14 9.64667C10.0496 9.63417 10.1968 9.41583 10.3888 9.3175C10.6768 9.17083 11.1856 9.1625 11.7864 9.16833C12.2544 9.17333 12.3896 9.20333 12.572 9.25C13.124 9.38917 12.9368 9.92583 12.9368 11.2133C12.9368 11.6258 12.8656 12.2058 13.1504 12.3967C13.2736 12.4792 13.5736 12.4092 14.3216 11.0808C14.6776 10.4508 14.944 9.71083 14.944 9.71083C14.944 9.71083 15.0024 9.57917 15.0928 9.5225C15.1856 9.46417 15.3104 9.4825 15.3104 9.4825L16.9944 9.47167C16.9944 9.47167 17.5 9.40833 17.5824 9.6475C17.6688 9.8975 17.3936 10.4817 16.7056 11.4375C15.576 13.0075 15.4504 12.8617 16.3888 13.77C17.2848 14.6375 17.4696 15.0592 17.5008 15.1125C17.8712 15.755 17.0888 15.8058 17.0888 15.8058Z" fill="#D19FF9"/>
</svg>
