<svg width="24" height="25" viewBox="0 0 24 25" fill="none" xmlns="http://www.w3.org/2000/svg">
<path d="M11.9999 2.5C6.6983 2.5 2.3999 6.9775 2.3999 12.5C2.3999 18.0225 6.6983 22.5 11.9999 22.5C17.3015 22.5 21.5999 18.0225 21.5999 12.5C21.5999 6.9775 17.3015 2.5 11.9999 2.5ZM17.0887 15.8058L15.5943 15.8275C15.5943 15.8275 15.2719 15.8933 14.8503 15.59C14.2911 15.19 13.7639 14.1492 13.3527 14.2842C12.9359 14.4225 12.9487 15.3592 12.9487 15.3592C12.9487 15.3592 12.9519 15.5242 12.8567 15.6317C12.7535 15.7475 12.5511 15.7358 12.5511 15.7358H11.8815C11.8815 15.7358 10.4047 15.8633 9.1031 14.45C7.6855 12.9092 6.4327 9.86833 6.4327 9.86833C6.4327 9.86833 6.3591 9.67667 6.4375 9.57833C6.5263 9.47 6.7655 9.46667 6.7655 9.46667L8.3655 9.45833C8.3655 9.45833 8.5159 9.48583 8.6247 9.56917C8.7135 9.6375 8.7639 9.76583 8.7639 9.76583C8.7639 9.76583 9.0223 10.4483 9.3655 11.0667C10.0343 12.2717 10.3447 12.5358 10.5719 12.4067C10.9031 12.2183 10.8039 10.7033 10.8039 10.7033C10.8039 10.7033 10.8103 10.1533 10.6375 9.90833C10.5031 9.7175 10.2503 9.66083 10.1399 9.64667C10.0495 9.63417 10.1967 9.41583 10.3887 9.3175C10.6767 9.17083 11.1855 9.1625 11.7863 9.16833C12.2543 9.17333 12.3895 9.20333 12.5719 9.25C13.1239 9.38917 12.9367 9.92583 12.9367 11.2133C12.9367 11.6258 12.8655 12.2058 13.1503 12.3967C13.2735 12.4792 13.5735 12.4092 14.3215 11.0808C14.6775 10.4508 14.9439 9.71083 14.9439 9.71083C14.9439 9.71083 15.0023 9.57917 15.0927 9.5225C15.1855 9.46417 15.3103 9.4825 15.3103 9.4825L16.9943 9.47167C16.9943 9.47167 17.4999 9.40833 17.5823 9.6475C17.6687 9.8975 17.3935 10.4817 16.7055 11.4375C15.5759 13.0075 15.4503 12.8617 16.3887 13.77C17.2847 14.6375 17.4695 15.0592 17.5007 15.1125C17.8711 15.755 17.0887 15.8058 17.0887 15.8058Z" fill="#FF4C01"/>
</svg>
