<svg width="55" height="29" viewBox="0 0 55 29" fill="none" xmlns="http://www.w3.org/2000/svg">
<path fill-rule="evenodd" clip-rule="evenodd" d="M46.5429 18.162C48.3368 19.7967 50.2302 21.3347 51.8391 23.1341C52.5498 23.9338 53.2227 24.759 53.7374 25.687C54.4668 27.0063 53.8062 28.458 52.5388 28.5368L44.6604 28.5334C42.6284 28.6908 41.0074 27.9273 39.6444 26.6306C38.5536 25.5937 37.5435 24.49 36.4946 23.4181C36.0647 22.9799 35.6146 22.5676 35.0769 22.2418C34.0014 21.5902 33.0679 21.7897 32.4533 22.8366C31.8273 23.9015 31.6853 25.0806 31.6238 26.2673C31.5395 27.9988 30.9787 28.454 29.1152 28.5333C25.1326 28.7086 21.3529 28.1462 17.8418 26.2711C14.7462 24.618 12.3457 22.2844 10.2564 19.6425C6.18833 14.4981 3.07303 8.8452 0.273119 3.03397C-0.357119 1.7247 0.103788 1.02188 1.65158 0.997007C4.22174 0.950407 6.79156 0.953724 9.36475 0.99369C10.4093 1.00795 11.1009 1.56715 11.5042 2.48821C12.8948 5.67939 14.5962 8.71552 16.732 11.5298C17.3007 12.279 17.8807 13.0283 18.7066 13.5556C19.6202 14.1395 20.3158 13.946 20.7456 12.9961C21.0184 12.3938 21.1378 11.745 21.1993 11.0999C21.4029 8.88053 21.4297 6.66495 21.0726 4.45336C20.8533 3.07311 20.0203 2.17958 18.5447 1.91839C17.7917 1.78523 17.9038 1.5237 18.2684 1.12254C18.9016 0.430676 19.4972 0 20.6845 0L29.5883 0C30.9901 0.258207 31.3014 0.84593 31.4933 2.16234L31.5009 11.3933C31.4856 11.9029 31.7736 13.4151 32.7571 13.7525C33.5442 13.9926 34.0631 13.4049 34.5354 12.939C36.6672 10.8273 38.1887 8.33161 39.5479 5.74738C40.1512 4.61107 40.6698 3.43098 41.1725 2.25189C41.5449 1.37694 42.1293 0.946427 43.1853 0.965498L51.7547 0.972629C52.0088 0.972629 52.2659 0.976112 52.512 1.01541C53.956 1.2451 54.3517 1.82486 53.9057 3.14094C53.203 5.20576 51.8357 6.92648 50.4988 8.65516C49.0697 10.5007 47.5413 12.2832 46.1241 14.1397C44.8221 15.835 44.9255 16.6896 46.5429 18.162Z" fill="white"/>
</svg>
