<svg  viewBox="0 0 24 24" fill="none" xmlns="http://www.w3.org/2000/svg">
<path d="M12 9C12.5933 9 13.1734 9.17595 13.6667 9.50559C14.1601 9.83524 14.5446 10.3038 14.7716 10.852C14.9987 11.4001 15.0581 12.0033 14.9424 12.5853C14.8266 13.1672 14.5409 13.7018 14.1213 14.1213C13.7018 14.5409 13.1672 14.8266 12.5853 14.9424C12.0033 15.0581 11.4001 14.9987 10.8519 14.7716C10.3038 14.5446 9.83524 14.1601 9.50559 13.6667C9.17595 13.1734 9 12.5933 9 12C9.00091 11.2046 9.31727 10.4421 9.87968 9.87969C10.4421 9.31727 11.2046 9.00091 12 9ZM7.875 2.625L16.125 2.625C17.5169 2.62658 18.8513 3.18021 19.8356 4.16443C20.8198 5.14866 21.3734 6.4831 21.375 7.875L21.375 16.125C21.3734 17.5169 20.8198 18.8513 19.8356 19.8356C18.8513 20.8198 17.5169 21.3734 16.125 21.375L7.875 21.375C6.4831 21.3734 5.14866 20.8198 4.16443 19.8356C3.18021 18.8513 2.62658 17.5169 2.625 16.125L2.625 7.875C2.62658 6.4831 3.18021 5.14866 4.16443 4.16443C5.14865 3.18021 6.4831 2.62658 7.875 2.625ZM12 7.5C11.11 7.5 10.24 7.76392 9.49993 8.25839C8.75991 8.75285 8.18314 9.45566 7.84254 10.2779C7.50195 11.1002 7.41283 12.005 7.58647 12.8779C7.7601 13.7508 8.18868 14.5526 8.81802 15.182C9.44736 15.8113 10.2492 16.2399 11.1221 16.4135C11.995 16.5872 12.8998 16.4981 13.7221 16.1575C14.5443 15.8169 15.2471 15.2401 15.7416 14.5001C16.2361 13.76 16.5 12.89 16.5 12C16.4987 10.8069 16.0241 9.66313 15.1805 8.81951C14.3369 7.97589 13.1931 7.50135 12 7.5ZM7.125 6C6.9025 6 6.68499 6.06598 6.49998 6.1896C6.31498 6.31322 6.17078 6.48892 6.08564 6.69448C6.00049 6.90005 5.97821 7.12625 6.02162 7.34448C6.06502 7.56271 6.17217 7.76316 6.3295 7.9205C6.48684 8.07783 6.68729 8.18498 6.90552 8.22838C7.12375 8.27179 7.34995 8.24951 7.55552 8.16436C7.76109 8.07922 7.93679 7.93502 8.0604 7.75002C8.18402 7.56501 8.25 7.34751 8.25 7.125C8.25 6.82663 8.13147 6.54049 7.92049 6.32951C7.70952 6.11853 7.42337 6 7.125 6Z" fill="white"/>
</svg>
