<svg viewBox="0 0 25 20" fill="none" xmlns="http://www.w3.org/2000/svg">
<path d="M1.66952 8.60995C8.18865 5.78751 12.5358 3.92678 14.7108 3.02777C20.9212 0.460913 22.2116 0.0150233 23.0527 0.000142741C23.2377 -0.00293856 23.6513 0.0426195 23.9193 0.258661C24.1455 0.441082 24.2077 0.687507 24.2375 0.860462C24.2673 1.03342 24.3044 1.42741 24.2749 1.73527C23.9384 5.2491 22.4822 13.7763 21.7413 17.7118C21.4279 19.3771 20.8106 19.9354 20.2131 19.9901C18.9144 20.1088 17.9283 19.1373 16.6705 18.3179C14.7023 17.0359 13.5904 16.2378 11.68 14.9867C9.47207 13.5409 10.9034 12.7462 12.1616 11.4476C12.4909 11.1077 18.2127 5.93594 18.3235 5.46679C18.3373 5.40811 18.3502 5.18939 18.2194 5.0739C18.0887 4.95841 17.8957 4.99791 17.7564 5.02932C17.559 5.07384 14.4148 7.13899 8.32376 11.2248C7.43129 11.8338 6.62291 12.1305 5.89863 12.1149C5.10018 12.0978 3.56426 11.6663 2.42247 11.2975C1.02202 10.8451 -0.0910386 10.606 0.00588344 9.83769C0.0563664 9.43752 0.610911 9.02828 1.66952 8.60995Z" fill="white"/>
</svg>
