<svg viewBox="0 0 21 24" fill="none" xmlns="http://www.w3.org/2000/svg">
<path d="M20.2965 5.14641C17.7758 5.14641 15.7251 3.14565 15.7251 0.686402C15.7251 0.307272 15.4101 0 15.0215 0L11.2536 0C10.8651 0 10.55 0.307272 10.55 0.686402L10.55 15.7583C10.55 17.204 9.34429 18.3802 7.86245 18.3802C6.38061 18.3802 5.17507 17.204 5.17507 15.7583C5.17507 14.3124 6.38061 13.1362 7.86245 13.1362C8.25105 13.1362 8.56599 12.8289 8.56599 12.4498L8.56599 8.77361C8.56599 8.39466 8.25105 8.08721 7.86245 8.08721C3.52705 8.08721 0 11.5285 0 15.7583C0 19.9881 3.52705 23.4292 7.86245 23.4292C12.1978 23.4292 15.7251 19.9881 15.7251 15.7583L15.7251 9.08678C17.1252 9.81519 18.6834 10.1954 20.2965 10.1954C20.6851 10.1954 21 9.88812 21 9.50899L21 5.83281C21 5.45386 20.6851 5.14641 20.2965 5.14641Z" fill="white" />
</svg>
