<svg viewBox="0 0 25 13" fill="none" xmlns="http://www.w3.org/2000/svg">
<path fill-rule="evenodd" clip-rule="evenodd" d="M21.1828 8.26599C21.9993 9.00996 22.861 9.70993 23.5932 10.5289C23.9167 10.8929 24.223 11.2684 24.4572 11.6908C24.7892 12.2912 24.4885 12.9519 23.9117 12.9878L20.326 12.9863C19.4012 13.0579 18.6635 12.7104 18.0431 12.1203C17.5467 11.6483 17.087 11.146 16.6096 10.6581C16.4139 10.4587 16.2091 10.2711 15.9644 10.1228C15.4749 9.82624 15.05 9.91703 14.7703 10.3935C14.4854 10.8781 14.4208 11.4148 14.3928 11.9549C14.3544 12.7429 14.0992 12.9501 13.251 12.9862C11.4385 13.066 9.71825 12.81 8.12023 11.9566C6.71136 11.2043 5.61884 10.1422 4.66792 8.93977C2.81646 6.59842 1.39861 4.02567 0.124303 1.38084C-0.162534 0.784952 0.0472363 0.465084 0.751672 0.453762C1.92142 0.432554 3.091 0.434063 4.26213 0.452253C4.73755 0.458744 5.05228 0.713249 5.23585 1.13244C5.86872 2.58483 6.64311 3.96665 7.61513 5.24748C7.87399 5.58848 8.13794 5.92948 8.51381 6.16949C8.92963 6.43524 9.24623 6.34716 9.44185 5.91484C9.56598 5.64071 9.62032 5.34544 9.6483 5.05184C9.74097 4.04175 9.75319 3.03338 9.59064 2.02684C9.49085 1.39865 9.11175 0.991983 8.44014 0.873108C8.09743 0.8125 8.14845 0.693474 8.31439 0.510898C8.6026 0.196011 8.87367 0 9.41403 0L13.4664 0C14.1043 0.117516 14.246 0.385004 14.3334 0.984133L14.3368 5.18536C14.3299 5.4173 14.461 6.10556 14.9086 6.25908C15.2668 6.36837 15.5029 6.10088 15.7179 5.88887C16.6881 4.92776 17.3806 3.79192 17.9992 2.61578C18.2738 2.09861 18.5098 1.56153 18.7386 1.02489C18.9081 0.626678 19.1741 0.430742 19.6547 0.439422L23.5548 0.442667C23.6705 0.442667 23.7875 0.444252 23.8995 0.46214C24.5567 0.566675 24.7368 0.830539 24.5338 1.42952C24.214 2.36927 23.5917 3.15241 22.9833 3.93917C22.3328 4.77915 21.6372 5.59036 20.9922 6.43532C20.3996 7.20691 20.4467 7.59584 21.1828 8.26599Z" fill="white" />
</svg>
